<svg width="350" height="215" viewBox="0 0 350 215" fill="none" xmlns="http://www.w3.org/2000/svg">
<path d="M5.09358 183.31H57.5843V208.223C57.5847 209.57 58.1214 210.862 59.0765 211.815C60.0316 212.767 61.3269 213.303 62.6776 213.303H91.6051C92.9558 213.303 94.2511 212.767 95.2062 211.815C96.1613 210.862 96.698 209.57 96.6983 208.223V183.31H105.505C106.856 183.309 108.151 182.774 109.106 181.821C110.062 180.868 110.598 179.576 110.599 178.229V151.067C110.598 149.719 110.062 148.427 109.106 147.475C108.151 146.522 106.856 145.987 105.505 145.986H96.6983V93.6265C96.698 92.2792 96.1613 90.9872 95.2062 90.0344C94.2511 89.0817 92.9558 88.5464 91.6051 88.546H62.6772C61.3265 88.5464 60.0312 89.0818 59.0761 90.0345C58.1211 90.9872 57.5844 92.2792 57.584 93.6265V145.986H40.8652L82.3073 8.22356C82.5345 7.46484 82.581 6.66367 82.4429 5.8839C82.3048 5.10413 81.9859 4.36732 81.5119 3.73218C81.0378 3.09705 80.4216 2.58117 79.7122 2.22564C79.0029 1.87011 78.2201 1.68477 77.4263 1.68439H46.7874C45.6825 1.6849 44.6077 2.04358 43.7249 2.70638C42.8422 3.36918 42.1993 4.3002 41.8931 5.35916L0.198917 149.661C0.0665549 150.118 -0.000417635 150.591 1.95941e-06 151.067V178.229C0.000344042 179.576 0.53711 180.869 1.49228 181.821C2.44744 182.774 3.74282 183.309 5.09358 183.31ZM10.1868 151.785L50.6209 11.8454H70.5823L29.1404 149.608C28.9132 150.367 28.8668 151.168 29.0049 151.948C29.143 152.728 29.4618 153.464 29.9359 154.1C30.41 154.735 31.0262 155.251 31.7355 155.606C32.4448 155.962 33.2276 156.147 34.0214 156.147H62.6775C64.0282 156.147 65.3235 155.612 66.2785 154.659C67.2336 153.706 67.7703 152.414 67.7707 151.067V98.7071H86.5119V151.067C86.5122 152.414 87.049 153.706 88.0041 154.659C88.9592 155.612 90.2544 156.147 91.6051 156.147H100.412V173.149H91.6051C90.2544 173.149 88.9592 173.684 88.0041 174.637C87.049 175.59 86.5122 176.882 86.5119 178.229V203.142H67.7704V178.229C67.7701 176.882 67.2334 175.59 66.2783 174.637C65.3232 173.684 64.0279 173.149 62.6772 173.149H10.1868V151.785Z" fill="#3E90B2"/>
<path d="M141.415 201.994C145.867 206.225 151.124 209.523 156.874 211.696C168.556 216.101 181.448 216.101 193.13 211.696C198.875 209.522 204.126 206.225 208.575 201.998C213.087 197.674 216.708 192.512 219.233 186.802C221.963 180.431 223.319 173.558 223.212 166.629V48.3585C223.318 41.4252 221.96 34.5473 219.226 28.1719C216.701 22.4655 213.083 17.3061 208.575 12.9833C204.125 8.75957 198.874 5.46473 193.13 3.29193C181.447 -1.09731 168.563 -1.09731 156.881 3.29193C151.128 5.46027 145.869 8.75674 141.415 12.9866C136.909 17.3063 133.297 22.4669 130.784 28.1752C128.04 34.5465 126.677 41.4247 126.785 48.3584V166.629C126.676 173.562 128.038 180.439 130.784 186.809C133.295 192.518 136.907 197.677 141.415 201.994ZM136.972 48.3585C136.868 42.8526 137.928 37.3866 140.082 32.3165C142.058 27.821 144.897 23.7545 148.438 20.3462C151.916 17.045 156.023 14.4728 160.515 12.7817C169.853 9.26119 180.158 9.26237 189.496 12.785C193.979 14.4781 198.078 17.0477 201.552 20.3429C205.095 23.7529 207.938 27.8188 209.922 32.3132C212.073 37.3853 213.13 42.8521 213.025 48.3585V166.629C213.131 172.13 212.076 177.591 209.928 182.658C207.947 187.159 205.101 191.229 201.552 194.638C198.08 197.937 193.98 200.509 189.495 202.203C180.151 205.702 169.852 205.702 160.508 202.203C156.018 200.511 151.913 197.937 148.438 194.635C144.893 191.23 142.054 187.162 140.082 182.665C137.926 177.597 136.866 172.133 136.972 166.629L136.972 48.3585Z" fill="#3E90B2"/>
<path d="M175.001 186.141C177.581 186.212 180.147 185.747 182.535 184.773C184.924 183.8 187.083 182.341 188.875 180.488C190.654 178.652 192.048 176.481 192.977 174.101C193.906 171.722 194.351 169.182 194.287 166.629V48.3586C194.35 45.8035 193.904 43.2613 192.974 40.8797C192.044 38.4982 190.648 36.325 188.868 34.4864C185.161 30.867 180.179 28.8412 174.992 28.8438C169.804 28.8463 164.825 30.8769 161.121 34.5C159.348 36.3394 157.958 38.5115 157.033 40.8905C156.107 43.2694 155.664 45.808 155.729 48.3589V166.629C155.662 169.181 156.105 171.721 157.032 174.1C157.959 176.479 159.351 178.651 161.128 180.488C162.919 182.341 165.078 183.8 167.467 184.773C169.856 185.747 172.422 186.212 175.001 186.141ZM165.916 48.3586C165.854 47.1145 166.046 45.8709 166.48 44.7031C166.914 43.5353 167.582 42.4676 168.442 41.5647C170.226 39.921 172.564 39.007 174.992 39.0044C177.42 39.0019 179.76 39.9111 181.547 41.5512C182.414 42.4532 183.087 43.522 183.526 44.6924C183.965 45.8628 184.16 47.1101 184.1 48.3583V166.629C184.161 167.875 183.967 169.12 183.529 170.288C183.091 171.456 182.419 172.523 181.553 173.423C179.769 175.067 177.43 175.98 175.001 175.98C172.572 175.98 170.233 175.067 168.449 173.423C167.585 172.522 166.915 171.455 166.48 170.287C166.044 169.119 165.852 167.874 165.916 166.629L165.916 48.3586Z" fill="#3E90B2"/>
<path d="M244.495 183.31H296.985V208.223C296.986 209.57 297.522 210.862 298.477 211.815C299.433 212.767 300.728 213.303 302.079 213.303H331.007C332.357 213.303 333.652 212.767 334.608 211.815C335.563 210.862 336.099 209.57 336.1 208.223V183.31H344.907C346.257 183.309 347.553 182.774 348.508 181.821C349.463 180.868 350 179.576 350 178.229V151.067C350 149.719 349.463 148.427 348.508 147.475C347.553 146.522 346.257 145.987 344.907 145.986H336.1V93.6265C336.099 92.2792 335.563 90.9872 334.608 90.0344C333.652 89.0817 332.357 88.5464 331.007 88.546H302.079C300.728 88.5464 299.433 89.0817 298.477 90.0344C297.522 90.9872 296.986 92.2792 296.985 93.6265V145.986H280.267L321.709 8.22356C321.936 7.46484 321.982 6.66368 321.844 5.88391C321.706 5.10415 321.387 4.36734 320.913 3.73221C320.439 3.09708 319.823 2.5812 319.114 2.22566C318.404 1.87013 317.622 1.68478 316.828 1.68439H286.189C285.084 1.6849 284.009 2.04358 283.126 2.70638C282.244 3.36918 281.601 4.3002 281.294 5.35916L239.6 149.661C239.468 150.118 239.401 150.591 239.401 151.067V178.229C239.402 179.576 239.938 180.868 240.894 181.821C241.849 182.774 243.144 183.309 244.495 183.31ZM249.588 151.785L290.022 11.8454H309.984L268.542 149.608C268.314 150.367 268.268 151.168 268.406 151.948C268.544 152.728 268.863 153.464 269.337 154.1C269.811 154.735 270.427 155.251 271.137 155.606C271.846 155.962 272.629 156.147 273.423 156.147H302.079C303.429 156.147 304.725 155.612 305.68 154.659C306.635 153.706 307.171 152.414 307.172 151.067V98.7071H325.913V151.067C325.914 152.414 326.45 153.706 327.405 154.659C328.361 155.612 329.656 156.147 331.007 156.147H339.813V173.149H331.007C329.656 173.149 328.361 173.684 327.405 174.637C326.45 175.59 325.914 176.882 325.913 178.229V203.142H307.172V178.229C307.171 176.882 306.635 175.59 305.68 174.637C304.725 173.684 303.429 173.149 302.079 173.149H249.588V151.785Z" fill="#3E90B2"/>
</svg>
