<svg width="25" height="25" viewBox="0 0 25 25" fill="none" xmlns="http://www.w3.org/2000/svg">
<path fill-rule="evenodd" clip-rule="evenodd" d="M15.625 13.0208H3.125V11.9792H15.625V13.0208Z" fill="#F3F3F3"/>
<path fill-rule="evenodd" clip-rule="evenodd" d="M12.3475 8.4859L15.9934 12.1318C16.1968 12.3351 16.1968 12.6649 15.9934 12.8683L12.3475 16.5142L11.611 15.7776L14.8885 12.5L11.611 9.22247L12.3475 8.4859Z" fill="#F3F3F3"/>
<path fill-rule="evenodd" clip-rule="evenodd" d="M8.85413 4.16668C8.85413 3.87903 9.08731 3.64584 9.37496 3.64584H21.875C22.1626 3.64584 22.3958 3.87903 22.3958 4.16668V20.8333C22.3958 21.1209 22.1626 21.3542 21.875 21.3542H9.37496C9.08731 21.3542 8.85413 21.1209 8.85413 20.8333V17.7083H9.89579V20.3125H21.3541V4.68751H9.89579V7.29168H8.85413V4.16668Z" fill="#F3F3F3"/>
</svg>
