<svg width="108" height="40" viewBox="0 0 108 40" fill="none" xmlns="http://www.w3.org/2000/svg">
<path d="M60.95 26.658C60.774 27.758 60.422 29.2393 59.894 31.102L59.652 31.96H58.046L58.112 31.102C58.1853 29.782 58.222 28.9607 58.222 28.638C58.222 28.33 58.2147 28.1173 58.2 28H44.78L44.89 26.988L46.672 26.68L48.432 12.996L46.892 12.732L47.002 11.654H53.514L53.382 12.732L51.512 12.996L49.774 26.79H55.494L57.254 12.996L55.692 12.732L55.802 11.654H62.182L62.072 12.732L60.312 12.996L58.552 26.658H60.95ZM73.1844 13.04C72.7444 12.8347 72.2237 12.732 71.6224 12.732C70.4637 12.732 69.4884 13.15 68.6964 13.986C67.9191 14.822 67.3397 15.878 66.9584 17.154C66.5917 18.4153 66.4231 19.6913 66.4524 20.982C66.5697 24.766 67.7064 26.658 69.8624 26.658C70.3317 26.658 70.8011 26.5993 71.2704 26.482C71.7544 26.35 72.1577 26.1153 72.4804 25.778C72.7151 25.3967 72.9791 24.656 73.2724 23.556H75.0764L74.6144 26.768C73.2211 27.7067 71.4684 28.176 69.3564 28.176C67.8897 28.176 66.6871 27.8533 65.7484 27.208C64.8097 26.5627 64.1277 25.712 63.7024 24.656C63.2771 23.5853 63.0644 22.3973 63.0644 21.092C63.0644 19.1267 63.4457 17.418 64.2084 15.966C64.9711 14.514 66.0344 13.3993 67.3984 12.622C68.7624 11.8447 70.3244 11.456 72.0844 11.456C72.9204 11.456 73.5804 11.4927 74.0644 11.566C74.5631 11.6393 74.9664 11.72 75.2744 11.808C75.5824 11.8813 75.7951 11.9327 75.9124 11.962L76.3084 12.072L75.6484 16.252H73.4924L73.1844 13.04ZM81.1489 11.654C81.5889 11.654 82.1903 11.6247 82.9529 11.566C83.6863 11.5073 84.2289 11.478 84.5809 11.478C86.5609 11.478 87.9983 11.852 88.8929 12.6C89.7876 13.348 90.2349 14.4847 90.2349 16.01C90.2349 17.3447 89.9269 18.4887 89.3109 19.442C88.6949 20.3953 87.8296 21.1213 86.7149 21.62C85.6149 22.1187 84.3389 22.368 82.8869 22.368C82.2856 22.368 81.7649 22.3533 81.3249 22.324L80.8189 26.68L83.4589 26.988L83.3929 28H76.0449L76.1549 26.988L77.6729 26.68L79.4549 12.996L77.9149 12.732L78.0469 11.654H81.1489ZM81.5009 20.96C81.9116 21.048 82.4103 21.092 82.9969 21.092C84.2876 21.0773 85.2776 20.608 85.9669 19.684C86.6709 18.76 87.0303 17.4913 87.0449 15.878C87.0449 13.7807 86.0549 12.732 84.0749 12.732C83.5909 12.732 83.0923 12.776 82.5789 12.864L81.5009 20.96ZM107.081 11.654L106.993 12.732L105.409 12.996L103.649 26.68L105.321 26.988L105.211 28H98.8753L99.0073 26.988L100.547 26.702L102.351 12.886H96.5653L94.7833 26.68L96.5873 26.988L96.4992 28H90.0753L90.1633 26.988L91.7033 26.68L93.4633 13.018L91.7473 12.732L91.8793 11.654H107.081Z" fill="#F3F3F3"/>
<path d="M38.3443 17.4068C35.5207 -0.491588 11.4723 -4.12839 3.32433 12.0104C-2.31327 23.5236 5.49313 37.0504 18.2391 38.238C18.1407 38.2932 22.9731 38.3244 20.5019 38.11C19.5483 38.0336 18.1023 37.712 16.9763 37.3264C2.42033 32.1964 2.47233 12.0864 17.0467 7.04481C26.6363 3.65281 37.4147 10.4792 38.3615 20.5512C38.3999 21.0064 38.4307 21.1164 38.4891 21.0112C38.5971 20.8188 38.5043 18.514 38.3443 17.4068Z" fill="#215A74"/>
<path d="M35.4864 21.2312C32.1868 24.8024 25.9712 22.7272 25.4212 17.9472C25.0408 15.314 26.814 12.6876 29.3428 11.7476C10.5756 3.13519 1.31645 33.0096 22.1608 35.9588C30.6284 36.6644 37.5864 29.1016 36.0052 20.8C35.9844 20.766 35.7508 20.96 35.4864 21.2312Z" fill="#215A74"/>
</svg>
