<svg width="25" height="25" viewBox="0 0 25 25" fill="none" xmlns="http://www.w3.org/2000/svg">
<path fill-rule="evenodd" clip-rule="evenodd" d="M9.375 11.9792H21.875V13.0208H9.375V11.9792Z" fill="#F3F3F3"/>
<path fill-rule="evenodd" clip-rule="evenodd" d="M12.6526 16.5141L9.00676 12.8682C8.80333 12.6649 8.80333 12.3351 9.00676 12.1317L12.6526 8.48582L13.3892 9.22238L10.1117 12.5L13.3892 15.7775L12.6526 16.5141Z" fill="#F3F3F3"/>
<path fill-rule="evenodd" clip-rule="evenodd" d="M16.146 20.8333C16.146 21.121 15.9128 21.3542 15.6252 21.3542H3.12516C2.83756 21.3542 2.60433 21.121 2.60433 20.8333V4.16665C2.60433 3.87905 2.83756 3.64582 3.12516 3.64582H15.6252C15.9128 3.64582 16.146 3.87905 16.146 4.16665V7.29166H15.1043V4.68749H3.646V20.3125H15.1043V17.7083H16.146V20.8333Z" fill="#F3F3F3"/>
</svg>
