<svg width="20" height="20" viewBox="0 0 20 20" fill="none" xmlns="http://www.w3.org/2000/svg">
<path d="M3.375 16.875L4.53125 12.2188L11.625 5.125L15.125 8.625L8.03125 15.7187L3.375 16.875ZM5.34375 12.6563L4.59375 15.6563L7.59375 14.9063L13.9062 8.59375L11.6562 6.34375L5.34375 12.6563Z" fill="#215A74"/>
<path d="M7.28125 15.4375C6.96875 14.2187 6.03125 13.2812 4.8125 12.9687L5.03125 12.0938C6.5625 12.4688 7.75 13.6562 8.125 15.1875L7.28125 15.4375Z" fill="#215A74"/>
<path d="M7.1875 13.7187L6.5625 13.0625L12.7812 6.84375L13.4062 7.46875L7.1875 13.7187Z" fill="#215A74"/>
<path d="M4 16.25L5.375 15.9062C5.25 15.4062 4.84375 15 4.34375 14.875L4 16.25Z" fill="#215A74"/>
<path d="M15.4687 8.28125L11.9688 4.78125L13.375 3.375L13.5937 3.40625C15.2812 3.625 16.625 4.96875 16.8437 6.65625L16.875 6.875L15.4687 8.28125ZM13.25 4.78125L15.5 7.03125L15.9375 6.59376C15.6875 5.46876 14.8125 4.59375 13.6875 4.34375L13.25 4.78125Z" fill="#215A74"/>
</svg>
