<svg width="20" height="20" viewBox="0 0 20 20" fill="none" xmlns="http://www.w3.org/2000/svg">
<path d="M11.3999 10L16.2999 5.1C16.4825 4.91371 16.5842 4.6629 16.5828 4.40207C16.5815 4.14124 16.4773 3.89147 16.2929 3.70703C16.1084 3.5226 15.8587 3.4184 15.5978 3.41708C15.337 3.41576 15.0862 3.51743 14.8999 3.7L9.99992 8.6L5.09992 3.7C4.91363 3.51743 4.66282 3.41576 4.40199 3.41708C4.14116 3.4184 3.89139 3.5226 3.70696 3.70703C3.52252 3.89147 3.41832 4.14124 3.417 4.40207C3.41569 4.6629 3.51736 4.91371 3.69992 5.1L8.59992 10L3.69992 14.9C3.51736 15.0863 3.41569 15.3371 3.417 15.5979C3.41832 15.8588 3.52252 16.1085 3.70696 16.293C3.89139 16.4774 4.14116 16.5816 4.40199 16.5829C4.66282 16.5842 4.91363 16.4826 5.09992 16.3L9.99992 11.4L14.8999 16.3C15.0862 16.4826 15.337 16.5842 15.5978 16.5829C15.8587 16.5816 16.1084 16.4774 16.2929 16.293C16.4773 16.1085 16.5815 15.8588 16.5828 15.5979C16.5842 15.3371 16.4825 15.0863 16.2999 14.9L11.3999 10Z" fill="#B35060"/>
</svg>
